#!OML:ASF H:\Male1\Project 1\Capture day 1\Session 1\Male1.ASF
:FULLY-SPECIFIED
:DEGREES
631
root 20.1901 15.4401 -0.25274 -548.291 -82.7212 546.432
lowerback 5.51007 2.05635 -3.49278
upperback 3.3537 2.46837 -1.68157
thorax 0.291822 1.15449 0.0995221
lowerneck -6.49496 0.130228 5.17121
upperneck 2.2159 -0.325714 0.992398
head 1.79746 -0.10152 -0.580223
rclavicle -3.8763e-015 3.97569e-015
rhumerus -33.9535 15.9593 -93.5938
rradius 40.7414
rwrist -23.7126
rhand -15.3373 -1.14322
rfingers 7.12502
rthumb 10.8394 -30.8435
lclavicle -3.8763e-015 3.97569e-015
lhumerus -22.4197 -10.3277 86.5377
lradius 30.6437
lwrist 0.287821
lhand -19.9656 8.42315
lfingers 7.12502
lthumb 6.37306 38.3073
rfemur -10.3476 6.28859 18.7278
rtibia 30.5675
rfoot -22.7218 -24.8433
rtoes -30.7176
lfemur -5.8091 -16.4187 -20.4336
ltibia 25.7494
lfoot -23.5226 26.6378
ltoes -2.27037
632
root 20.19 15.442 -0.245166 -547.666 -82.7886 545.85
lowerback 5.47642 2.00617 -3.55391
upperback 3.29697 2.39986 -1.72155
thorax 0.253276 1.1213 0.0963995
lowerneck -6.77472 -0.0925552 5.09155
upperneck 2.572 -0.635577 0.90185
head 1.95769 -0.248956 -0.609742
rclavicle -1.08338e-014 2.38542e-015
rhumerus -33.9381 16.1076 -93.7715
rradius 40.888
rwrist -23.6129
rhand -15.2117 -1.08002
rfingers 7.12502
rthumb 10.9606 -30.7739
lclavicle -1.08338e-014 2.38542e-015
lhumerus -22.3186 -10.9666 86.6502
lradius 30.7842
lwrist 0.60626
lhand -19.7911 7.85103
lfingers 7.12502
lthumb 6.54153 37.73
rfemur -10.5892 5.79699 18.5893
rtibia 30.7409
rfoot -22.6804 -24.2708
rtoes -30.8583
lfemur -5.77177 -16.628 -20.5702
ltibia 25.5921
lfoot -23.5063 26.7954
ltoes -2.34645
633
root 20.1889 15.4424 -0.243098 -547.042 -82.8934 545.269
lowerback 5.43898 1.94764 -3.61941
upperback 3.24388 2.32052 -1.75136
thorax 0.22037 1.08253 0.106927
lowerneck -7.07815 -0.304671 5.03329
upperneck 2.95875 -0.931995 0.772024
head 2.13372 -0.390119 -0.656834
rclavicle -4.87022e-015 2.70347e-014
rhumerus -33.9687 16.3139 -93.9555
rradius 41.1045
rwrist -23.5207
rhand -15.1706 -1.037
rfingers 7.12502
rthumb 11.0002 -30.7288
lclavicle -4.87022e-015 2.70347e-014
lhumerus -22.2599 -11.5017 86.7374
lradius 30.9091
lwrist 0.873769
lhand -19.8877 7.07404
lfingers 7.12502
lthumb 6.44827 36.9559
rfemur -10.7103 5.66549 18.5047
rtibia 30.731
rfoot -22.7865 -24.0211
rtoes -30.3556
lfemur -5.75444 -16.8416 -20.6869
ltibia 25.4753
lfoot -23.5064 26.9115
ltoes -2.41789
634
root 20.187 15.4411 -0.246859 -546.24 -83.0421 544.502
lowerback 5.39633 1.88428 -3.71388
upperback 3.1977 2.23372 -1.77935
thorax 0.196695 1.03937 0.136134
lowerneck -7.33339 -0.525302 4.94251
upperneck 3.29658 -1.23365 0.680461
head 2.28567 -0.535099 -0.687059
rclavicle -2.09718e-014 3.97569e-015
rhumerus -34.0513 16.5923 -94.1516
rradius 41.4025
rwrist -23.4878
rhand -15.2563 -1.0076
rfingers 7.12502
rthumb 10.9175 -30.7038
lclavicle -2.09718e-014 3.97569e-015
lhumerus -22.2265 -11.9553 86.8009
lradius 31.0017
lwrist 1.07846
lhand -20.2233 6.1973
lfingers 7.12502
lthumb 6.12427 36.0888
rfemur -10.6988 5.94156 18.4498
rtibia 30.5471
rfoot -23.0015 -24.1541
rtoes -29.2676
lfemur -5.75383 -17.0537 -20.8045
ltibia 25.3946
lfoot -23.5206 26.978
ltoes -2.45813
635
root 20.1834 15.438 -0.255751 -544.966 -83.1963 543.248
lowerback 5.32934 1.83218 -3.85521
upperback 3.16419 2.16092 -1.81935
thorax 0.198274 1.00194 0.179309
lowerneck -7.49035 -0.765541 4.79052
upperneck 3.52771 -1.55147 0.672105
head 2.38481 -0.689677 -0.679915
rclavicle 7.95139e-016 3.97569e-015
rhumerus -34.1796 16.9311 -94.36
rradius 41.7677
rwrist -23.5331
rhand -15.411 -1.00359
rfingers 7.12502
rthumb 10.7683 -30.7076
lclavicle 7.95139e-016 3.97569e-015
lhumerus -22.2163 -12.3305 86.8415
lradius 31.0612
lwrist 1.20633
lhand -20.6527 5.43855
lfingers 7.12502
lthumb 5.70971 35.3416
rfemur -10.5504 6.64096 18.3855
rtibia 30.2188
rfoot -23.3 -24.6593
rtoes -27.7968
lfemur -5.74747 -17.2593 -20.9664
ltibia 25.3465
lfoot -23.5648 27.0293
ltoes -2.45822
636
root 20.1788 15.4326 -0.269024 -543.215 -83.353 541.504
lowerback 5.2466 1.78883 -4.03041
upperback 3.13824 2.0989 -1.87515
thorax 0.21579 0.969012 0.225038
lowerneck -7.53452 -1.02682 4.57499
upperneck 3.64326 -1.88765 0.759235
head 2.42572 -0.854571 -0.630148
rclavicle -7.05686e-015 1.11319e-014
rhumerus -34.3357 17.3081 -94.5787
rradius 42.1566
rwrist -23.6482
rhand -15.5813 -0.956527
rfingers 7.12502
rthumb 10.6041 -30.669
lclavicle -7.05686e-015 1.11319e-014
lhumerus -22.2349 -12.6215 86.8582
lradius 31.0875
lwrist 1.25494
lhand -20.982 4.93925
lfingers 7.12502
lthumb 5.39175 34.8507
rfemur -10.2679 7.68612 18.3092
rtibia 29.7822
rfoot -23.7398 -25.4354
rtoes -26.0604
lfemur -5.74512 -17.4589 -21.1701
ltibia 25.3373
lfoot -23.6181 27.0784
ltoes -2.4825
637
root 20.1733 15.4264 -0.285387 -541.446 -83.4944 539.731
lowerback 5.14974 1.75283 -4.16707
upperback 3.12146 2.04958 -1.93797
thorax 0.251934 0.942501 0.241876
lowerneck -7.42407 -1.30905 4.27855
upperneck 3.5917 -2.24007 0.978391
head 2.38479 -1.0291 -0.521467
rclavicle 8.05078e-015 -3.97569e-015
rhumerus -34.481 17.6856 -94.7966
rradius 42.5028
rwrist -23.7912
rhand -15.7323 -0.692346
rfingers 7.12502
rthumb 10.4584 -30.4122
lclavicle 8.05078e-015 -3.97569e-015
lhumerus -22.275 -12.8243 86.8469
lradius 31.0737
lwrist 1.22726
lhand -21.1056 4.78135
lfingers 7.12502
lthumb 5.2724 34.6958
rfemur -9.88173 8.94232 18.2696
rtibia 29.271
rfoot -24.2905 -26.3821
rtoes -24.3516
lfemur -5.75016 -17.6576 -21.3601
ltibia 25.3782
lfoot -23.689 27.1398
ltoes -2.53955
638
root 20.1676 15.4202 -0.303409 -540.229 -83.6135 538.501
lowerback 5.04732 1.71954 -4.19414
upperback 3.11595 2.00993 -1.99118
thorax 0.305691 0.921933 0.207301
lowerneck -7.31145 -1.58697 4.01503
upperneck 3.5557 -2.58916 1.17048
head 2.35043 -1.20208 -0.427157
rclavicle -8.24956e-015 -7.15625e-015
rhumerus -34.5792 18.041 -94.9977
rradius 42.7488
rwrist -23.9181
rhand -15.8075 -0.215827
rfingers 7.12502
rthumb 10.3858 -29.9393
lclavicle -8.24956e-015 -7.15625e-015
lhumerus -22.3302 -12.8918 86.805
lradius 31.0121
lwrist 1.10013
lhand -21.0613 5.04774
lfingers 7.12502
lthumb 5.31512 34.9611
rfemur -9.41618 10.2397 18.3174
rtibia 28.7106
rfoot -24.9368 -27.3484
rtoes -22.9082
lfemur -5.76736 -17.8741 -21.4776
ltibia 25.484
lfoot -23.8096 27.2247
ltoes -2.55937
639
root 20.1616 15.415 -0.322093 -539.964 -83.6975 538.223
lowerback 4.94192 1.68793 -4.07607
upperback 3.11607 1.97996 -2.02062
thorax 0.370196 0.908221 0.115947
lowerneck -7.20207 -1.85223 3.77662
upperneck 3.53478 -2.92394 1.34594
head 2.32341 -1.36785 -0.342068
rclavicle 2.66371e-014 -2.06736e-014
rhumerus -34.6184 18.3676 -95.1732
rradius 42.8602
rwrist -23.9987
rhand -15.7914 0.287645
rfingers 7.12502
rthumb 10.4014 -29.4351
lclavicle 2.66371e-014 -2.06736e-014
lhumerus -22.3987 -12.7524 86.73
lradius 30.8877
lwrist 0.84885
lhand -20.9634 5.55043
lfingers 7.12502
lthumb 5.40972 35.4614
rfemur -8.90975 11.4369 18.4796
rtibia 28.1255
rfoot -25.6287 -28.2217
rtoes -21.9205
lfemur -5.79941 -18.1097 -21.4831
ltibia 25.6532
lfoot -23.9966 27.3431
ltoes -2.51121
640
root 20.1552 15.4112 -0.340938 -540.64 -83.7369 538.894
lowerback 4.83804 1.65958 -3.83181
upperback 3.11078 1.96001 -2.02313
thorax 0.430808 0.901804 -0.01874
lowerneck -7.08899 -2.09726 3.54996
upperneck 3.52367 -3.234 1.52896
head 2.301 -1.52087 -0.255633
rclavicle 1.77912e-014 -2.22639e-014
rhumerus -34.6129 18.661 -95.3202
rradius 42.8324
rwrist -24.0183
rhand -15.6872 0.633325
rfingers 7.12502
rthumb 10.5019 -29.0843
lclavicle 1.77912e-014 -2.22639e-014
lhumerus -22.4925 -12.3552 86.6231
lradius 30.6947
lwrist 0.470208
lhand -20.9232 6.25621
lfingers 7.12502
lthumb 5.44851 36.1662
rfemur -8.40729 12.4566 18.738
rtibia 27.5465
rfoot -26.3212 -28.935
rtoes -21.3783
lfemur -5.84116 -18.3563 -21.3834
ltibia 25.8672
lfoot -24.2496 27.4959
ltoes -2.38803
641
root 20.1487 15.4087 -0.360151 -541.736 -83.7248 540.001
lowerback 4.73577 1.63568 -3.54773
upperback 3.09047 1.94733 -2.00209
thorax 0.47518 0.90029 -0.152148
lowerneck -6.97001 -2.32523 3.33813
upperneck 3.52744 -3.52268 1.70007
head 2.28382 -1.66321 -0.174723
rclavicle -9.83984e-015 4.77083e-015
rhumerus -34.5818 18.936 -95.4304
rradius 42.6903
rwrist -23.9954
rhand -15.5073 0.683078
rfingers 7.12502
rthumb 10.6754 -29.0257
lclavicle -9.83984e-015 4.77083e-015
lhumerus -22.6412 -11.6661 86.4934
lradius 30.4581
lwrist -0.0038945
lhand -20.9732 6.99322
lfingers 7.12502
lthumb 5.40023 36.9044
rfemur -7.95559 13.288 19.0266
rtibia 27.0113
rfoot -27.0162 -29.4382
rtoes -21.0632
lfemur -5.8893 -18.5863 -21.2321
ltibia 26.0924
lfoot -24.5554 27.6633
ltoes -2.15977
642
root 20.1431 15.4077 -0.380417 -542.632 -83.6715 540.933
lowerback 4.6353 1.61557 -3.3191
upperback 3.04988 1.93675 -1.96506
thorax 0.495345 0.899629 -0.238813
lowerneck -6.82858 -2.54753 3.1579
upperneck 3.5301 -3.80331 1.82291
head 2.26201 -1.8027 -0.113724
rclavicle 1.5704e-014 -4.05521e-014
rhumerus -34.5349 19.1928 -95.4914
rradius 42.4691
rwrist -23.9578
rhand -15.281 0.424665
rfingers 7.12502
rthumb 10.8937 -29.2728
lclavicle 1.5704e-014 -4.05521e-014
lhumerus -22.868 -10.6802 86.3441
lradius 30.2153
lwrist -0.509927
lhand -20.9744 7.55603
lfingers 7.12502
lthumb 5.3991 37.4673
rfemur -7.60144 13.9672 19.2783
rtibia 26.5581
rfoot -27.7085 -29.7544
rtoes -20.7568
lfemur -5.9488 -18.7661 -21.0843
ltibia 26.2907
lfoot -24.8592 27.8241
ltoes -1.88685
